<?xml version="1.0" encoding="UTF-8"?>
<!DOCTYPE svg PUBLIC "-//W3C//DTD SVG 1.1//EN" "http://www.w3.org/Graphics/SVG/1.1/DTD/svg11.dtd">
<!-- Creator: CorelDRAW X7 -->
<svg xmlns="http://www.w3.org/2000/svg" xml:space="preserve" width="25mm" height="25mm" version="1.1" style="shape-rendering:geometricPrecision; text-rendering:geometricPrecision; image-rendering:optimizeQuality; fill-rule:evenodd; clip-rule:evenodd"
viewBox="0 0 2500 2500"
 xmlns:xlink="http://www.w3.org/1999/xlink">
 <defs>
  <style type="text/css">
   <![CDATA[
    .fil0 {fill:#FEFEFE}
    .fil1 {fill:#9D9E9E}
   ]]>
  </style>
 </defs>
 <g id="Layer_x0020_1">
  <metadata id="CorelCorpID_0Corel-Layer"/>
  <path class="fil0" d="M276 2343l187 0 -94 -178 -93 178zm-126 130l190 -348 62 0 193 348 -64 0 -44 -86 -235 0 -45 86 -57 0zm815 -303l-199 0 0 122 199 0c15,0 25,-2 30,-8 5,-5 8,-14 8,-27l0 -51c0,-13 -3,-22 -8,-28 -6,-5 -15,-8 -30,-8zm-257 303l0 -348 280 0c26,0 45,5 56,16 12,11 18,28 18,52l0 77c0,24 -6,41 -18,51 -11,11 -30,16 -56,16l-51 0 159 136 -86 0 -142 -136 -102 0 0 136 -58 0zm468 0l0 -24 257 -277 -235 0 0 -47 328 0 0 20 -262 279 262 0 0 49 -350 0z"/>
  <path class="fil1" d="M1738 2343l188 0 -94 -178 -94 178zm-126 130l190 -348 62 0 194 348 -64 0 -44 -86 -236 0 -44 86 -58 0zm558 0l0 -348 58 0 0 348 -58 0z"/>
  <polygon class="fil1" points="569,1936 232,1931 1067,30 1906,1936 1555,1936 1067,807 "/>
  <path class="fil1" d="M1906 1936l327 0 0 -781c-50,20 -104,32 -161,32 -59,0 -115,-12 -166,-34l0 783z"/>
  <path class="fil0" d="M2072 504c146,0 265,119 265,265 0,147 -119,266 -265,266 -147,0 -266,-119 -266,-266 0,-146 119,-265 266,-265zm0 114c84,0 152,68 152,151 0,84 -68,152 -152,152 -84,0 -152,-68 -152,-152 0,-83 68,-151 152,-151z"/>
  <path class="fil0" d="M478 1130c71,195 205,256 437,199 232,-57 850,-462 947,-579 48,-57 20,122 77,177 57,55 199,-16 114,51 -171,133 -413,330 -685,496 -273,166 -705,330 -837,128 -133,-201 -53,-472 -53,-472z"/>
 </g>
</svg>
