<?xml version="1.0" encoding="UTF-8"?>
<!DOCTYPE svg PUBLIC "-//W3C//DTD SVG 1.1//EN" "http://www.w3.org/Graphics/SVG/1.1/DTD/svg11.dtd">
<!-- Creator: CorelDRAW X7 -->
<svg xmlns="http://www.w3.org/2000/svg" xml:space="preserve" width="1000mm" height="1000mm" version="1.1" style="shape-rendering:geometricPrecision; text-rendering:geometricPrecision; image-rendering:optimizeQuality; fill-rule:evenodd; clip-rule:evenodd"
viewBox="0 0 100000 100000"
 xmlns:xlink="http://www.w3.org/1999/xlink">
 <defs>
  <style type="text/css">
   <![CDATA[
    .fil0 {fill:black}
    .fil1 {fill:#85B08F}
   ]]>
  </style>
 </defs>
 <g id="Layer_x0020_1">
  <metadata id="CorelCorpID_0Corel-Layer"/>
  <path class="fil0" d="M156916 17197c4214,-80 5016,-5087 11342,-3917 7152,1322 4813,3089 11943,4069 5871,806 5893,6858 9765,7244 4906,489 6785,-2691 13341,-9462 7681,-7933 11924,-8606 19389,-7767 10245,1150 9350,6253 14150,4953 3626,-982 5878,-1759 9273,2417 3496,4300 6743,4600 10797,3773l0 88266 -100000 0 0 -89576z"/>
  <path class="fil1" d="M0 51080c6458,-1430 8787,-277 13447,4528 2907,2996 5470,-2011 11512,-547 10363,2511 6664,0 12948,2587 4344,1787 6550,4843 10902,2493 9658,-5218 20662,-314 27959,5283 5348,4103 8567,5641 12846,2371 3781,-2889 6261,-2560 10386,-2815l0 35020 -100000 0 0 -48920z"/>
 </g>
</svg>
